<svg version="1.1" xmlns="http://www.w3.org/2000/svg" xmlns:xlink="http://www.w3.org/1999/xlink" width="900" height="600"><defs><clipPath id="TEIzoobfBrQx"><path fill="none" stroke="none" d=" M 49.129140625 34.4 L 897 34.4 L 897 569.84 L 49.129140625 569.84 L 49.129140625 34.4 Z"/></clipPath></defs><g><g transform="translate(450,17.2) rotate(0,0,0)"><text fill="#666" stroke="none" font-family="'Helvetica Neue', 'Helvetica', 'Arial', sans-serif" font-size="12px" font-style="normal" font-weight="bold" text-decoration="normal" x="0" y="0" text-anchor="middle" dominant-baseline="central">World Population (in millions)</text></g><g><path fill="none" stroke="rgb(0,0,0)" paint-order="fill stroke markers" d=" M 49.5 570 L 49.5 579.84 M 49.5 34.4 L 49.5 569" stroke-opacity="0.25" stroke-miterlimit="10"/></g><g><path fill="none" stroke="rgb(0,0,0)" paint-order="fill stroke markers" d=" M 143.5 570 L 143.5 579.84 M 143.5 34.4 L 143.5 569" stroke-opacity="0.1" stroke-miterlimit="10"/></g><g><path fill="none" stroke="rgb(0,0,0)" paint-order="fill stroke markers" d=" M 237.5 570 L 237.5 579.84 M 237.5 34.4 L 237.5 569" stroke-opacity="0.1" stroke-miterlimit="10"/></g><g><path fill="none" stroke="rgb(0,0,0)" paint-order="fill stroke markers" d=" M 331.5 570 L 331.5 579.84 M 331.5 34.4 L 331.5 569" stroke-opacity="0.1" stroke-miterlimit="10"/></g><g><path fill="none" stroke="rgb(0,0,0)" paint-order="fill stroke markers" d=" M 425.5 570 L 425.5 579.84 M 425.5 34.4 L 425.5 569" stroke-opacity="0.1" stroke-miterlimit="10"/></g><g><path fill="none" stroke="rgb(0,0,0)" paint-order="fill stroke markers" d=" M 520.5 570 L 520.5 579.84 M 520.5 34.4 L 520.5 569" stroke-opacity="0.1" stroke-miterlimit="10"/></g><g><path fill="none" stroke="rgb(0,0,0)" paint-order="fill stroke markers" d=" M 614.5 570 L 614.5 579.84 M 614.5 34.4 L 614.5 569" stroke-opacity="0.1" stroke-miterlimit="10"/></g><g><path fill="none" stroke="rgb(0,0,0)" paint-order="fill stroke markers" d=" M 708.5 570 L 708.5 579.84 M 708.5 34.4 L 708.5 569" stroke-opacity="0.1" stroke-miterlimit="10"/></g><g><path fill="none" stroke="rgb(0,0,0)" paint-order="fill stroke markers" d=" M 802.5 570 L 802.5 579.84 M 802.5 34.4 L 802.5 569" stroke-opacity="0.1" stroke-miterlimit="10"/></g><g><path fill="none" stroke="rgb(0,0,0)" paint-order="fill stroke markers" d=" M 896.5 570 L 896.5 579.84 M 896.5 34.4 L 896.5 569" stroke-opacity="0.1" stroke-miterlimit="10"/></g><path fill="none" stroke="rgb(0,0,0)" paint-order="fill stroke markers" d=" M 49 569.5 L 898 569.5" stroke-opacity="0.1" stroke-miterlimit="10" stroke-dasharray=""/><g transform="translate(96.23307725694444,579.84) rotate(0,0,0)"><text fill="#666" stroke="none" font-family="'Helvetica Neue', 'Helvetica', 'Arial', sans-serif" font-size="12px" font-style="normal" font-weight="normal" text-decoration="normal" x="0" y="7.199999999999999" text-anchor="middle" dominant-baseline="central">1500</text></g><g transform="translate(190.44095052083333,579.84) rotate(0,0,0)"><text fill="#666" stroke="none" font-family="'Helvetica Neue', 'Helvetica', 'Arial', sans-serif" font-size="12px" font-style="normal" font-weight="normal" text-decoration="normal" x="0" y="7.199999999999999" text-anchor="middle" dominant-baseline="central">1600</text></g><g transform="translate(284.64882378472225,579.84) rotate(0,0,0)"><text fill="#666" stroke="none" font-family="'Helvetica Neue', 'Helvetica', 'Arial', sans-serif" font-size="12px" font-style="normal" font-weight="normal" text-decoration="normal" x="0" y="7.199999999999999" text-anchor="middle" dominant-baseline="central">1700</text></g><g transform="translate(378.8566970486111,579.84) rotate(0,0,0)"><text fill="#666" stroke="none" font-family="'Helvetica Neue', 'Helvetica', 'Arial', sans-serif" font-size="12px" font-style="normal" font-weight="normal" text-decoration="normal" x="0" y="7.199999999999999" text-anchor="middle" dominant-baseline="central">1800</text></g><g transform="translate(473.0645703125,579.84) rotate(0,0,0)"><text fill="#666" stroke="none" font-family="'Helvetica Neue', 'Helvetica', 'Arial', sans-serif" font-size="12px" font-style="normal" font-weight="normal" text-decoration="normal" x="0" y="7.199999999999999" text-anchor="middle" dominant-baseline="central">1900</text></g><g transform="translate(567.2724435763889,579.84) rotate(0,0,0)"><text fill="#666" stroke="none" font-family="'Helvetica Neue', 'Helvetica', 'Arial', sans-serif" font-size="12px" font-style="normal" font-weight="normal" text-decoration="normal" x="0" y="7.199999999999999" text-anchor="middle" dominant-baseline="central">2000</text></g><g transform="translate(661.4803168402777,579.84) rotate(0,0,0)"><text fill="#666" stroke="none" font-family="'Helvetica Neue', 'Helvetica', 'Arial', sans-serif" font-size="12px" font-style="normal" font-weight="normal" text-decoration="normal" x="0" y="7.199999999999999" text-anchor="middle" dominant-baseline="central">2030</text></g><g transform="translate(755.6881901041667,579.84) rotate(0,0,0)"><text fill="#666" stroke="none" font-family="'Helvetica Neue', 'Helvetica', 'Arial', sans-serif" font-size="12px" font-style="normal" font-weight="normal" text-decoration="normal" x="0" y="7.199999999999999" text-anchor="middle" dominant-baseline="central">2060</text></g><g transform="translate(849.8960633680555,579.84) rotate(0,0,0)"><text fill="#666" stroke="none" font-family="'Helvetica Neue', 'Helvetica', 'Arial', sans-serif" font-size="12px" font-style="normal" font-weight="normal" text-decoration="normal" x="0" y="7.199999999999999" text-anchor="middle" dominant-baseline="central">2100</text></g><g><path fill="none" stroke="rgb(0,0,0)" paint-order="fill stroke markers" d=" M 39.129140625 34.5 L 49 34.5 M 50 34.5 L 897 34.5" stroke-opacity="0.1" stroke-miterlimit="10"/></g><g><path fill="none" stroke="rgb(0,0,0)" paint-order="fill stroke markers" d=" M 39.129140625 123.5 L 49 123.5 M 50 123.5 L 897 123.5" stroke-opacity="0.1" stroke-miterlimit="10"/></g><g><path fill="none" stroke="rgb(0,0,0)" paint-order="fill stroke markers" d=" M 39.129140625 212.5 L 49 212.5 M 50 212.5 L 897 212.5" stroke-opacity="0.1" stroke-miterlimit="10"/></g><g><path fill="none" stroke="rgb(0,0,0)" paint-order="fill stroke markers" d=" M 39.129140625 302.5 L 49 302.5 M 50 302.5 L 897 302.5" stroke-opacity="0.1" stroke-miterlimit="10"/></g><g><path fill="none" stroke="rgb(0,0,0)" paint-order="fill stroke markers" d=" M 39.129140625 391.5 L 49 391.5 M 50 391.5 L 897 391.5" stroke-opacity="0.1" stroke-miterlimit="10"/></g><g><path fill="none" stroke="rgb(0,0,0)" paint-order="fill stroke markers" d=" M 39.129140625 480.5 L 49 480.5 M 50 480.5 L 897 480.5" stroke-opacity="0.1" stroke-miterlimit="10"/></g><g><path fill="none" stroke="rgb(0,0,0)" paint-order="fill stroke markers" d=" M 39.129140625 569.5 L 49 569.5 M 50 569.5 L 897 569.5" stroke-opacity="0.25" stroke-miterlimit="10"/></g><path fill="none" stroke="rgb(0,0,0)" paint-order="fill stroke markers" d=" M 49.5 34 L 49.5 570" stroke-opacity="0.1" stroke-miterlimit="10" stroke-dasharray=""/><g transform="translate(39.129140625,34.4) rotate(0,0,0)"><text fill="#666" stroke="none" font-family="'Helvetica Neue', 'Helvetica', 'Arial', sans-serif" font-size="12px" font-style="normal" font-weight="normal" text-decoration="normal" x="0" y="0" text-anchor="end" dominant-baseline="central">12000</text></g><g transform="translate(39.129140625,123.63999999999999) rotate(0,0,0)"><text fill="#666" stroke="none" font-family="'Helvetica Neue', 'Helvetica', 'Arial', sans-serif" font-size="12px" font-style="normal" font-weight="normal" text-decoration="normal" x="0" y="0" text-anchor="end" dominant-baseline="central">10000</text></g><g transform="translate(39.129140625,212.88000000000005) rotate(0,0,0)"><text fill="#666" stroke="none" font-family="'Helvetica Neue', 'Helvetica', 'Arial', sans-serif" font-size="12px" font-style="normal" font-weight="normal" text-decoration="normal" x="0" y="0" text-anchor="end" dominant-baseline="central">8000</text></g><g transform="translate(39.129140625,302.12) rotate(0,0,0)"><text fill="#666" stroke="none" font-family="'Helvetica Neue', 'Helvetica', 'Arial', sans-serif" font-size="12px" font-style="normal" font-weight="normal" text-decoration="normal" x="0" y="0" text-anchor="end" dominant-baseline="central">6000</text></g><g transform="translate(39.129140625,391.36000000000007) rotate(0,0,0)"><text fill="#666" stroke="none" font-family="'Helvetica Neue', 'Helvetica', 'Arial', sans-serif" font-size="12px" font-style="normal" font-weight="normal" text-decoration="normal" x="0" y="0" text-anchor="end" dominant-baseline="central">4000</text></g><g transform="translate(39.129140625,480.6) rotate(0,0,0)"><text fill="#666" stroke="none" font-family="'Helvetica Neue', 'Helvetica', 'Arial', sans-serif" font-size="12px" font-style="normal" font-weight="normal" text-decoration="normal" x="0" y="0" text-anchor="end" dominant-baseline="central">2000</text></g><g transform="translate(39.129140625,569.84) rotate(0,0,0)"><text fill="#666" stroke="none" font-family="'Helvetica Neue', 'Helvetica', 'Arial', sans-serif" font-size="12px" font-style="normal" font-weight="normal" text-decoration="normal" x="0" y="0" text-anchor="end" dominant-baseline="central">0</text></g><g clip-path="url(#TEIzoobfBrQx)"><g><rect fill="rgb(255,150,0)" stroke="none" x="58.549927951388916" y="543.7373000000001" width="75.36629861111103" height="26.102699999999913"/><rect fill="rgb(255,150,0)" stroke="none" x="152.7578012152778" y="540.3908" width="75.36629861111106" height="29.44920000000002"/><rect fill="rgb(255,150,0)" stroke="none" x="246.96567447916672" y="538.1598" width="75.36629861111103" height="31.680200000000013"/><rect fill="rgb(255,150,0)" stroke="none" x="341.1735477430556" y="526.20164" width="75.366298611111" height="43.638360000000034"/><rect fill="rgb(255,150,0)" stroke="none" x="435.3814210069445" y="496.21700000000004" width="75.366298611111" height="73.62299999999999"/><rect fill="rgb(255,150,0)" stroke="none" x="529.5892942708334" y="296.45326000000006" width="75.366298611111" height="273.38674"/><rect fill="rgb(255,150,0)" stroke="none" x="623.7971675347222" y="188.38362" width="75.366298611111" height="381.45638"/><rect fill="rgb(255,150,0)" stroke="none" x="718.0050407986112" y="116.85776000000001" width="75.366298611111" height="452.98224000000005"/><rect fill="rgb(255,150,0)" stroke="none" x="812.2129140625" y="84.5975" width="75.366298611111" height="485.24250000000006"/></g></g></g></svg>